<svg width="20" height="20" viewBox="0 0 20 20" fill="none" xmlns="http://www.w3.org/2000/svg">
    <path fill-rule="evenodd" clip-rule="evenodd" d="M12.4999 16.6667C12.9602 16.6667 13.3333 17.0398 13.3333 17.5001C13.3333 17.9603 12.9602 18.3334 12.4999 18.3334H7.49992C7.03968 18.3334 6.66659 17.9603 6.66659 17.5001C6.66659 17.0398 7.03968 16.6667 7.49992 16.6667H12.4999ZM9.99964 1.66675C13.9271 1.66675 16.6666 4.0344 16.6666 7.8156C16.6666 9.35796 16.0969 10.6356 15.0109 12.0412L14.8139 12.2906C14.6395 12.5068 13.977 13.2846 13.7538 13.5598L13.6273 13.7228C13.4518 13.9583 13.3607 14.1204 13.3365 14.2058L13.3161 14.3353C13.2375 14.7178 12.8994 15.0001 12.4999 15.0001H7.49992C7.10045 15.0001 6.76235 14.7178 6.68374 14.3353L6.66329 14.2058C6.63912 14.1204 6.54804 13.9583 6.37256 13.7228L6.24602 13.5597L5.18595 12.2905L4.98896 12.0411C3.90304 10.6355 3.33325 9.35795 3.33325 7.81564C3.33325 4.03449 6.07268 1.66675 9.99964 1.66675ZM9.99964 3.33341C6.94355 3.33341 4.99992 5.01333 4.99992 7.81564C4.99992 8.91702 5.42721 9.87965 6.30241 11.015L6.48343 11.2444C6.62392 11.4187 7.1995 12.0951 7.48418 12.4412L7.60624 12.5923C7.81626 12.8615 7.98037 13.1021 8.0994 13.3334H11.9004L11.9773 13.1933C12.087 13.0047 12.2256 12.8077 12.3936 12.5923L12.8704 12.0158C13.1357 11.7 13.4228 11.3606 13.5164 11.2445L13.6974 11.015C14.5727 9.8797 14.9999 8.91707 14.9999 7.81564C14.9999 5.01327 13.0562 3.33341 9.99964 3.33341Z" fill="black"/>
</svg>
