<svg width="14" height="14" viewBox="0 0 14 14" fill="none" xmlns="http://www.w3.org/2000/svg">
<path d="M1.40939 0.489209C1.15555 0.235368 0.743996 0.235368 0.490155 0.489209C0.236314 0.74305 0.236314 1.15461 0.490155 1.40845L6.08077 6.99906L0.590618 12.4892C0.336776 12.7431 0.336777 13.1546 0.590618 13.4084C0.844459 13.6623 1.25602 13.6623 1.50986 13.4084L7.00001 7.9183L12.4902 13.4084C12.744 13.6623 13.1556 13.6623 13.4094 13.4084C13.6632 13.1546 13.6632 12.7431 13.4094 12.4892L7.91924 6.99906L13.5099 1.40845C13.7637 1.15461 13.7637 0.74305 13.5099 0.489209C13.256 0.235368 12.8445 0.235368 12.5906 0.489209L7.00001 6.07982L1.40939 0.489209Z" fill="#747782"/>
</svg>
