<svg viewBox="0 0 22 28" fill="none" xmlns="http://www.w3.org/2000/svg">
<path fill-rule="evenodd" clip-rule="evenodd" d="M17.6666 8.66669C18.403 8.66669 18.9999 9.26364 18.9999 10V23.3334C18.9999 25.5425 17.2091 27.3334 14.9999 27.3334H6.99992C4.79078 27.3334 2.99992 25.5425 2.99992 23.3334V10C2.99992 9.26364 3.59687 8.66669 4.33325 8.66669H17.6666ZM16.3333 11.3334H5.66658V23.3334C5.66658 24.0697 6.26354 24.6667 6.99992 24.6667H14.9999C15.7363 24.6667 16.3333 24.0697 16.3333 23.3334V11.3334ZM6.99992 2.00002C6.99992 1.26364 7.59687 0.666687 8.33325 0.666687H13.6666C14.403 0.666687 14.9999 1.26364 14.9999 2.00002V3.33335H20.3333C21.0696 3.33335 21.6666 3.93031 21.6666 4.66669C21.6666 5.40307 21.0696 6.00002 20.3333 6.00002H1.66659C0.930206 6.00002 0.333252 5.40307 0.333252 4.66669C0.333252 3.93031 0.930206 3.33335 1.66659 3.33335H6.99992V2.00002Z" fill="black"/>
</svg>
