<svg width="28" height="16" viewBox="0 0 28 16" fill="none" xmlns="http://www.w3.org/2000/svg">
<path d="M2.81728 0.279606L2.94289 0.390524L11.3334 8.78L15.7239 4.39052C16.2046 3.90988 16.9609 3.87291 17.4839 4.27961L17.6096 4.39052L23.3334 10.1133L25.0573 8.39052C25.8607 7.58709 27.2097 8.09644 27.3254 9.18183L27.3334 9.33333L27.3311 14.7458L27.3191 14.8626L27.2858 15.0211L27.2536 15.1222L27.2085 15.231L27.1388 15.3609L27.0495 15.4894L26.9429 15.6095C26.8957 15.6567 26.8458 15.6996 26.7938 15.7382L26.6455 15.8338L26.4952 15.905L26.3547 15.9522L26.198 15.9853L26.1191 15.9947L26.0001 16H20.6667C19.5305 16 18.9368 14.686 19.6224 13.8366L19.7239 13.7239L21.4467 12L16.6667 7.22L12.2762 11.6095C11.7956 12.0901 11.0393 12.1271 10.5162 11.7204L10.3906 11.6095L1.05727 2.27614C0.536573 1.75544 0.536573 0.911223 1.05727 0.390524C1.53792 -0.090121 2.29423 -0.127094 2.81728 0.279606Z" fill="black"/>
</svg>
