<svg width="28" height="16" viewBox="0 0 28 16" fill="none" xmlns="http://www.w3.org/2000/svg">
<path d="M2.81728 15.7204L2.94289 15.6095L11.3334 7.22L15.7239 11.6095C16.2046 12.0901 16.9609 12.1271 17.4839 11.7204L17.6096 11.6095L23.3334 5.88667L25.0573 7.60948C25.8607 8.41291 27.2097 7.90356 27.3254 6.81817L27.3334 6.66667L27.3311 1.25415L27.3191 1.1374L27.2858 0.978881L27.2536 0.877778L27.2085 0.769038L27.1388 0.639055L27.0495 0.510637L26.9429 0.390479C26.8957 0.343332 26.8458 0.300417 26.7938 0.261779L26.6455 0.166228L26.4952 0.0949673L26.3547 0.0477935L26.198 0.0146904L26.1191 0.00528854L26.0001 0H20.6667C19.5305 0 18.9368 1.31402 19.6224 2.16337L19.7239 2.27614L21.4467 4L16.6667 8.78L12.2762 4.39052C11.7956 3.90988 11.0393 3.87291 10.5162 4.27961L10.3906 4.39052L1.05727 13.7239C0.536573 14.2446 0.536573 15.0888 1.05727 15.6095C1.53792 16.0901 2.29423 16.1271 2.81728 15.7204Z" fill="black"/>
</svg>
