<svg width="28" height="28" viewBox="0 0 28 28" fill="none" xmlns="http://www.w3.org/2000/svg">
<path fill-rule="evenodd" clip-rule="evenodd" d="M9.33342 23.3333C10.438 23.3333 11.3334 24.2288 11.3334 25.3333C11.3334 26.4379 10.438 27.3333 9.33342 27.3333C8.22885 27.3333 7.33342 26.4379 7.33342 25.3333C7.33342 24.2288 8.22885 23.3333 9.33342 23.3333ZM21.3334 23.3333C22.438 23.3333 23.3334 24.2288 23.3334 25.3333C23.3334 26.4379 22.438 27.3333 21.3334 27.3333C20.2288 27.3333 19.3334 26.4379 19.3334 25.3333C19.3334 24.2288 20.2288 23.3333 21.3334 23.3333ZM2.00008 0.666672H4.66675C5.27422 0.666672 5.79782 1.07579 5.95349 1.65032L5.98458 1.79726L6.63115 6.00001H26.0001C26.7998 6.00001 27.4066 6.69424 27.3269 7.46713L27.3017 7.62258L25.099 17.5344C24.71 19.285 23.2079 20.5524 21.4373 20.6594L21.1943 20.6667H9.6212C7.72589 20.6667 6.10271 19.3392 5.71028 17.5065L5.66771 17.2749L3.52286 3.33334H2.00008C1.2637 3.33334 0.666748 2.73638 0.666748 2.00001C0.666748 1.31622 1.18147 0.752662 1.84459 0.675642L2.00008 0.666672H4.66675H2.00008ZM24.3379 8.66667H7.04141L8.30337 16.8694C8.39574 17.4698 8.87972 17.9251 9.47124 17.9916L9.6212 18H21.1943C21.7671 18 22.2695 17.6353 22.4537 17.1046L22.4959 16.9559L24.3379 8.66667Z" fill="black"/>
</svg>
