<svg width="17" height="18" viewBox="0 0 17 18" fill="none" xmlns="http://www.w3.org/2000/svg">
<path fill-rule="evenodd" clip-rule="evenodd" d="M4.79289 2.29289L6.79289 0.292893C7.18342 -0.0976311 7.81658 -0.0976311 8.20711 0.292893C8.56759 0.653377 8.59532 1.22061 8.2903 1.6129L8.20711 1.70711L7.88916 2.02302C8.09161 2.00771 8.29532 2 8.5 2C12.9183 2 16.5 5.58172 16.5 10C16.5 14.4183 12.9183 18 8.5 18C4.08172 18 0.5 14.4183 0.5 10C0.5 9.44771 0.947715 9 1.5 9C2.05228 9 2.5 9.44771 2.5 10C2.5 13.3137 5.18629 16 8.5 16C11.8137 16 14.5 13.3137 14.5 10C14.5 6.68629 11.8137 4 8.5 4C8.31293 4 8.12712 4.00853 7.94295 4.02545L8.20711 4.29289C8.59763 4.68342 8.59763 5.31658 8.20711 5.70711C7.84662 6.06759 7.27939 6.09532 6.8871 5.7903L6.79289 5.70711L4.79289 3.70711C4.43241 3.34662 4.40468 2.77939 4.7097 2.3871L4.79289 2.29289L6.79289 0.292893L4.79289 2.29289Z" fill="white"/>
</svg>
