<svg width="74" height="25" viewBox="0 0 74 25" fill="none" xmlns="http://www.w3.org/2000/svg">
<path d="M3.12 10.6C3.12 11.864 3.392 12.992 3.936 13.984C4.496 14.976 5.256 15.76 6.216 16.336C7.176 16.912 8.264 17.2 9.48 17.2C10.712 17.2 11.8 16.912 12.744 16.336C13.704 15.76 14.456 14.976 15 13.984C15.56 12.992 15.84 11.864 15.84 10.6C15.84 9.336 15.56 8.208 15 7.216C14.456 6.224 13.704 5.44 12.744 4.864C11.8 4.288 10.712 4 9.48 4C8.264 4 7.176 4.288 6.216 4.864C5.256 5.44 4.496 6.224 3.936 7.216C3.392 8.208 3.12 9.336 3.12 10.6ZM0.96 10.6C0.96 9.368 1.168 8.232 1.584 7.192C2.016 6.136 2.616 5.224 3.384 4.456C4.152 3.672 5.056 3.064 6.096 2.632C7.136 2.184 8.264 1.96 9.48 1.96C10.712 1.96 11.84 2.184 12.864 2.632C13.904 3.064 14.808 3.672 15.576 4.456C16.344 5.224 16.936 6.136 17.352 7.192C17.784 8.232 18 9.368 18 10.6C18 11.816 17.784 12.952 17.352 14.008C16.936 15.064 16.344 15.984 15.576 16.768C14.808 17.536 13.904 18.144 12.864 18.592C11.84 19.024 10.712 19.24 9.48 19.24C8.264 19.24 7.136 19.024 6.096 18.592C5.056 18.144 4.152 17.536 3.384 16.768C2.616 15.984 2.016 15.064 1.584 14.008C1.168 12.952 0.96 11.816 0.96 10.6ZM22.6809 14.68C22.6809 15.56 22.8809 16.24 23.2809 16.72C23.6809 17.2 24.2649 17.44 25.0329 17.44C25.5929 17.44 26.0809 17.328 26.4969 17.104C26.9289 16.864 27.2569 16.536 27.4809 16.12C27.7209 15.704 27.8409 15.224 27.8409 14.68V7.96H29.7609V19H27.8409V17.272C27.4729 17.928 27.0169 18.424 26.4729 18.76C25.9289 19.08 25.2889 19.24 24.5529 19.24C23.4009 19.24 22.4809 18.848 21.7929 18.064C21.1049 17.28 20.7609 16.232 20.7609 14.92V7.96H22.6809V14.68ZM31.6903 7.96H37.2103V9.76H31.6903V7.96ZM33.4903 4.12H35.4103V19H33.4903V4.12ZM39.1359 0.279999H41.0559V19H39.1359V0.279999ZM45.5312 15.592C45.5312 16.008 45.6272 16.368 45.8192 16.672C46.0272 16.976 46.3072 17.208 46.6592 17.368C47.0272 17.512 47.4432 17.584 47.9072 17.584C48.4992 17.584 49.0272 17.464 49.4912 17.224C49.9712 16.984 50.3472 16.648 50.6192 16.216C50.9072 15.768 51.0512 15.256 51.0512 14.68L51.4352 16.12C51.4352 16.824 51.2192 17.408 50.7872 17.872C50.3712 18.336 49.8512 18.68 49.2272 18.904C48.6192 19.128 48.0112 19.24 47.4032 19.24C46.7312 19.24 46.0992 19.104 45.5072 18.832C44.9312 18.544 44.4672 18.136 44.1152 17.608C43.7632 17.08 43.5872 16.44 43.5872 15.688C43.5872 14.616 43.9632 13.76 44.7152 13.12C45.4832 12.464 46.5472 12.136 47.9072 12.136C48.7072 12.136 49.3712 12.232 49.8992 12.424C50.4432 12.6 50.8752 12.808 51.1952 13.048C51.5152 13.272 51.7312 13.456 51.8432 13.6V14.728C51.2832 14.344 50.7072 14.072 50.1152 13.912C49.5232 13.736 48.8912 13.648 48.2192 13.648C47.5952 13.648 47.0832 13.728 46.6832 13.888C46.2992 14.048 46.0112 14.272 45.8192 14.56C45.6272 14.848 45.5312 15.192 45.5312 15.592ZM45.2432 10.504L44.3072 9.088C44.7232 8.784 45.2912 8.48 46.0112 8.176C46.7472 7.872 47.6272 7.72 48.6512 7.72C49.5152 7.72 50.2672 7.856 50.9072 8.128C51.5632 8.384 52.0672 8.76 52.4192 9.256C52.7872 9.752 52.9712 10.36 52.9712 11.08V19H51.0512V11.344C51.0512 10.96 50.9872 10.648 50.8592 10.408C50.7312 10.152 50.5472 9.952 50.3072 9.808C50.0832 9.664 49.8192 9.56 49.5152 9.496C49.2112 9.432 48.8912 9.4 48.5552 9.4C48.0112 9.4 47.5152 9.464 47.0672 9.592C46.6352 9.72 46.2672 9.872 45.9632 10.048C45.6592 10.224 45.4192 10.376 45.2432 10.504ZM64.8647 7.96L57.6647 24.28H55.5047L58.5287 17.44L54.3047 7.96H56.5847L60.0887 16.6L59.2967 16.504L62.7047 7.96H64.8647ZM67.131 15.616C67.355 15.952 67.611 16.264 67.899 16.552C68.187 16.84 68.515 17.072 68.883 17.248C69.267 17.408 69.683 17.488 70.131 17.488C70.675 17.488 71.099 17.368 71.403 17.128C71.723 16.872 71.883 16.528 71.883 16.096C71.883 15.712 71.755 15.392 71.499 15.136C71.259 14.864 70.947 14.64 70.563 14.464C70.179 14.272 69.771 14.096 69.339 13.936C68.859 13.744 68.371 13.52 67.875 13.264C67.395 12.992 66.987 12.648 66.651 12.232C66.331 11.8 66.171 11.264 66.171 10.624C66.171 9.968 66.339 9.424 66.675 8.992C67.027 8.56 67.475 8.24 68.019 8.032C68.579 7.824 69.155 7.72 69.747 7.72C70.339 7.72 70.891 7.816 71.403 8.008C71.931 8.2 72.395 8.456 72.795 8.776C73.195 9.096 73.507 9.464 73.731 9.88L72.195 10.864C71.891 10.448 71.507 10.104 71.043 9.832C70.595 9.56 70.083 9.424 69.507 9.424C69.107 9.424 68.763 9.512 68.475 9.688C68.187 9.864 68.043 10.136 68.043 10.504C68.043 10.792 68.155 11.048 68.379 11.272C68.603 11.496 68.891 11.696 69.243 11.872C69.595 12.048 69.963 12.216 70.347 12.376C70.987 12.632 71.571 12.912 72.099 13.216C72.627 13.504 73.043 13.856 73.347 14.272C73.667 14.688 73.827 15.224 73.827 15.88C73.827 16.84 73.475 17.64 72.771 18.28C72.083 18.92 71.171 19.24 70.035 19.24C69.299 19.24 68.635 19.112 68.043 18.856C67.451 18.584 66.947 18.24 66.531 17.824C66.131 17.408 65.827 16.984 65.619 16.552L67.131 15.616Z" fill="var(--bg-color)"/>
</svg>
